<?xml version="1.0" ?><svg data-name="Layer 1" id="Layer_1" viewBox="0 0 128 128" xmlns="http://www.w3.org/2000/svg"><defs><style>.cls-1{fill:#062b31;}</style></defs><title/><path class="cls-1" d="M41.75,22.5a19.19,19.19,0,0,1,10.08,2.85L54,26.71l2.54-.54a39,39,0,0,1,46.14,46.72l-.52,2.33,1.11,2.11a19,19,0,0,1,2.19,8.92A19.25,19.25,0,0,1,77,103.15L74.94,102l-2.34.48A39,39,0,0,1,26.44,56.84l.49-2.55-1.4-2.19A19.24,19.24,0,0,1,41.75,22.5m0-6.5A25.74,25.74,0,0,0,20.06,55.61a45.51,45.51,0,0,0,53.86,53.25,25.75,25.75,0,0,0,35.14-34.54,45.49,45.49,0,0,0-53.83-54.5A25.62,25.62,0,0,0,41.75,16Z"/><path class="cls-1" d="M41.4,51.58c0-11.52,11.52-15.7,22.27-15.7,16.66,0,20.44,9.84,21.32,12.66.53,1.68-1,6.51-5.6,6s-5.23-7-14.19-9.52c-2.75-.76-11.61.35-11.61,5.52,0,4.6,15,6.86,22.37,9.71,7.72,3,11.23,7.14,11.23,14.18,0,14.28-15.42,17.7-21.8,17.7-20.18,0-24.56-14-24.56-16.37a5.1,5.1,0,0,1,5.23-5.43c6.95,0,4.28,12.28,17.61,12.28,10.47,0,11.52-4.85,11.52-7.23,0-6.85-18.27-9.23-18.27-9.23S41.4,63.71,41.4,51.58Z"/></svg>